<svg width="1615" height="504" viewBox="0 0 1615 504" fill="none" xmlns="http://www.w3.org/2000/svg"> <path fill-rule="evenodd" clip-rule="evenodd" d="M55.6298 348.111C70.7997 348.111 83.0935 360.422 83.0935 375.604C83.0935 390.787 70.7997 403.098 55.6298 403.098C40.4598 403.098 28.1592 390.787 28.1592 375.604C28.1592 360.422 40.4598 348.111 55.6298 348.111ZM67.2282 166.203C67.2282 96.0055 125.802 41.2412 195.778 45.7548C198.383 45.9237 200.962 46.2075 203.508 46.6129C206.735 50.613 211.089 53.7819 216.308 55.586L242.415 70.093C254.81 79.6742 272.633 77.3836 282.206 64.9713C291.779 52.5589 289.491 34.7276 277.089 25.1464L234.752 1.97033C228.048 -0.340512 221.074 0.0108516 214.978 2.46359C212.068 2.74738 176.483 -7.08386 129.137 10.6664C15.8653 53.14 -14.5083 199.088 70.219 283.88L96.9537 310.637C118.146 331.847 150.335 299.63 129.143 278.42L102.409 251.663C78.9551 228.183 67.2216 197.203 67.2216 166.216L67.2282 166.203ZM106.412 352.82C82.0471 298.529 0 315.759 0 375.604C0 435.45 82.0606 452.673 106.412 398.389H145.947L218.549 494.505C227.4 506.552 245.405 507.464 254.931 495.349L347.504 377.841L374.664 408.112C383.859 418.943 399.103 419.355 408.5 409.949L534.478 283.873C599.181 219.116 599.181 113.296 534.437 48.5792C517.404 31.5316 497.582 18.9773 476.424 10.9164C429.875 -6.81359 394.242 2.48386 391.548 2.18656C385.472 -0.347264 378.498 -0.786471 371.767 1.43654L327.696 25.1869C315.294 34.7681 313.005 52.5995 322.578 65.0118C332.151 77.4242 349.975 79.7148 362.376 70.1335L389.55 55.2819C394.809 53.5454 399.211 50.4035 402.492 46.4237C405.017 46.0588 407.576 45.8021 410.148 45.6602C444.187 43.8223 477.815 56.2009 502.288 80.7486C549.202 127.709 549.202 204.696 502.288 251.65L393.277 360.753L363.268 327.306C354.869 317.968 340.496 317.212 331.166 325.617L237.432 444.058L175.375 361.901C170.913 355.982 164.114 352.868 157.235 352.82H106.412Z" fill="white"/> <path d="M326.653 281.35C326.653 294.412 316.065 305 303.003 305C289.941 305 279.354 294.412 279.354 281.35V223.646H221.65C208.594 223.646 198 213.059 198 199.997C198 186.935 208.588 176.347 221.65 176.347H279.354V118.65C279.354 105.594 289.948 95 303.003 95C316.059 95 326.653 105.588 326.653 118.65V176.347H384.35C397.406 176.347 408 186.935 408 199.997C408 213.059 397.412 223.646 384.35 223.646H326.653V281.35Z" fill="white"/> <path fill-rule="evenodd" clip-rule="evenodd" d="M55.4966 359C64.6061 359 72 366.386 72 375.5C72 384.614 64.6128 392 55.4966 392C46.3804 392 39 384.614 39 375.5C39 366.386 46.3872 359 55.4966 359Z" fill="white"/> <path d="M749.78 218.9C737.913 218.9 727.513 216.567 718.58 211.9C709.78 207.1 702.913 200.567 697.98 192.3C693.18 184.033 690.78 174.633 690.78 164.1C690.78 153.433 693.113 144.033 697.78 135.9C702.58 127.633 709.113 121.167 717.38 116.5C725.78 111.833 735.313 109.5 745.98 109.5C756.38 109.5 765.646 111.767 773.78 116.3C781.913 120.833 788.313 127.233 792.98 135.5C797.646 143.767 799.98 153.5 799.98 164.7C799.98 165.767 799.913 166.967 799.78 168.3C799.78 169.633 799.713 170.9 799.58 172.1H710.58V155.5H786.38L776.58 160.7C776.713 154.567 775.446 149.167 772.78 144.5C770.113 139.833 766.446 136.167 761.78 133.5C757.246 130.833 751.98 129.5 745.98 129.5C739.846 129.5 734.446 130.833 729.78 133.5C725.246 136.167 721.646 139.9 718.98 144.7C716.446 149.367 715.18 154.9 715.18 161.3V165.3C715.18 171.7 716.646 177.367 719.58 182.3C722.513 187.233 726.646 191.033 731.98 193.7C737.313 196.367 743.446 197.7 750.38 197.7C756.38 197.7 761.78 196.767 766.58 194.9C771.38 193.033 775.646 190.1 779.38 186.1L792.78 201.5C787.98 207.1 781.913 211.433 774.58 214.5C767.38 217.433 759.113 218.9 749.78 218.9ZM820.547 172.3V151.5H875.547V172.3H820.547ZM945.77 219.5C934.837 219.5 924.37 217.967 914.37 214.9C904.37 211.7 896.437 207.633 890.57 202.7L899.57 182.5C905.17 186.9 912.104 190.567 920.37 193.5C928.637 196.433 937.104 197.9 945.77 197.9C953.104 197.9 959.037 197.1 963.57 195.5C968.104 193.9 971.437 191.767 973.57 189.1C975.704 186.3 976.77 183.167 976.77 179.7C976.77 175.433 975.237 172.033 972.17 169.5C969.104 166.833 965.104 164.767 960.17 163.3C955.37 161.7 949.97 160.233 943.97 158.9C938.104 157.567 932.17 156.033 926.17 154.3C920.304 152.433 914.904 150.1 909.97 147.3C905.17 144.367 901.237 140.5 898.17 135.7C895.104 130.9 893.57 124.767 893.57 117.3C893.57 109.7 895.57 102.767 899.57 96.5C903.704 90.1 909.904 85.0333 918.17 81.3C926.57 77.4333 937.17 75.5 949.97 75.5C958.37 75.5 966.704 76.5667 974.97 78.7C983.237 80.8333 990.437 83.9 996.57 87.9L988.37 108.1C982.104 104.367 975.637 101.633 968.97 99.9C962.304 98.0333 955.904 97.1 949.77 97.1C942.57 97.1 936.704 97.9667 932.17 99.7C927.77 101.433 924.504 103.7 922.37 106.5C920.37 109.3 919.37 112.5 919.37 116.1C919.37 120.367 920.837 123.833 923.77 126.5C926.837 129.033 930.77 131.033 935.57 132.5C940.504 133.967 945.97 135.433 951.97 136.9C957.97 138.233 963.904 139.767 969.77 141.5C975.77 143.233 981.17 145.5 985.97 148.3C990.904 151.1 994.837 154.9 997.77 159.7C1000.84 164.5 1002.37 170.567 1002.37 177.9C1002.37 185.367 1000.3 192.3 996.17 198.7C992.17 204.967 985.97 210.033 977.57 213.9C969.17 217.633 958.57 219.5 945.77 219.5ZM1028.15 217.5V77.5H1049.55L1110.75 179.7H1099.55L1159.75 77.5H1181.15L1181.35 217.5H1156.75L1156.55 116.1H1161.75L1110.55 201.5H1098.95L1046.95 116.1H1052.95V217.5H1028.15ZM1199.37 217.5L1262.37 77.5H1287.97L1351.17 217.5H1323.97L1269.77 91.3H1280.17L1226.17 217.5H1199.37ZM1228.37 185.1L1235.37 164.7H1310.97L1317.97 185.1H1228.37ZM1368.97 217.5V77.5H1426.57C1438.97 77.5 1449.57 79.5 1458.37 83.5C1467.31 87.5 1474.17 93.2333 1478.97 100.7C1483.77 108.167 1486.17 117.033 1486.17 127.3C1486.17 137.567 1483.77 146.433 1478.97 153.9C1474.17 161.233 1467.31 166.9 1458.37 170.9C1449.57 174.767 1438.97 176.7 1426.57 176.7H1383.37L1394.97 164.9V217.5H1368.97ZM1460.57 217.5L1425.17 166.7H1452.97L1488.57 217.5H1460.57ZM1394.97 167.7L1383.37 155.3H1425.37C1436.84 155.3 1445.44 152.833 1451.17 147.9C1457.04 142.967 1459.97 136.1 1459.97 127.3C1459.97 118.367 1457.04 111.5 1451.17 106.7C1445.44 101.9 1436.84 99.5 1425.37 99.5H1383.37L1394.97 86.7V167.7ZM1541.71 217.5V99.5H1495.31V77.5H1614.11V99.5H1567.71V217.5H1541.71Z" fill="white"/> <path d="M746.133 443.25C738.333 443.25 731.083 441.95 724.383 439.35C717.783 436.65 712.033 432.9 707.133 428.1C702.233 423.3 698.433 417.7 695.733 411.3C693.033 404.8 691.683 397.7 691.683 390C691.683 382.3 693.033 375.25 695.733 368.85C698.433 362.35 702.233 356.7 707.133 351.9C712.133 347.1 717.933 343.4 724.533 340.8C731.133 338.1 738.333 336.75 746.133 336.75C753.533 336.75 760.433 337.95 766.833 340.35C773.333 342.75 778.883 346.4 783.483 351.3L778.683 356.25C774.183 351.85 769.183 348.7 763.683 346.8C758.283 344.8 752.533 343.8 746.433 343.8C739.733 343.8 733.483 344.95 727.683 347.25C721.983 349.55 716.983 352.8 712.683 357C708.483 361.2 705.183 366.1 702.783 371.7C700.483 377.3 699.333 383.4 699.333 390C699.333 396.6 700.483 402.7 702.783 408.3C705.183 413.9 708.483 418.8 712.683 423C716.983 427.2 721.983 430.45 727.683 432.75C733.483 435.05 739.733 436.2 746.433 436.2C752.533 436.2 758.283 435.25 763.683 433.35C769.183 431.35 774.183 428.1 778.683 423.6L783.483 428.55C778.883 433.45 773.333 437.15 766.833 439.65C760.433 442.05 753.533 443.25 746.133 443.25ZM809.106 442.5V337.5H816.756V435.6H877.206V442.5H809.106ZM896.85 442.5V337.5H904.5V442.5H896.85ZM941.088 442.5V337.5H947.538L1022.39 433.05H1018.94V337.5H1026.59V442.5H1020.29L945.288 346.95H948.738V442.5H941.088ZM1063.26 442.5V337.5H1070.91V442.5H1063.26ZM1151.89 443.25C1144.09 443.25 1136.84 441.95 1130.14 439.35C1123.54 436.65 1117.79 432.9 1112.89 428.1C1107.99 423.3 1104.19 417.7 1101.49 411.3C1098.79 404.8 1097.44 397.7 1097.44 390C1097.44 382.3 1098.79 375.25 1101.49 368.85C1104.19 362.35 1107.99 356.7 1112.89 351.9C1117.89 347.1 1123.69 343.4 1130.29 340.8C1136.89 338.1 1144.09 336.75 1151.89 336.75C1159.29 336.75 1166.19 337.95 1172.59 340.35C1179.09 342.75 1184.64 346.4 1189.24 351.3L1184.44 356.25C1179.94 351.85 1174.94 348.7 1169.44 346.8C1164.04 344.8 1158.29 343.8 1152.19 343.8C1145.49 343.8 1139.24 344.95 1133.44 347.25C1127.74 349.55 1122.74 352.8 1118.44 357C1114.24 361.2 1110.94 366.1 1108.54 371.7C1106.24 377.3 1105.09 383.4 1105.09 390C1105.09 396.6 1106.24 402.7 1108.54 408.3C1110.94 413.9 1114.24 418.8 1118.44 423C1122.74 427.2 1127.74 430.45 1133.44 432.75C1139.24 435.05 1145.49 436.2 1152.19 436.2C1158.29 436.2 1164.04 435.25 1169.44 433.35C1174.94 431.35 1179.94 428.1 1184.44 423.6L1189.24 428.55C1184.64 433.45 1179.09 437.15 1172.59 439.65C1166.19 442.05 1159.29 443.25 1151.89 443.25Z" fill="white"/> </svg>
