<svg width="386" height="372" viewBox="0 0 386 372" fill="none" xmlns="http://www.w3.org/2000/svg">
<path d="M376.03 32.71H225.33V162.27H376.03V32.71Z" fill="#E0E0E0"/>
<path d="M379.38 32.71H228.68V162.27H379.38V32.71Z" fill="#F0F0F0"/>
<path d="M373.369 156.19V38.79L234.689 38.79V156.19H373.369Z" fill="#FAFAFA"/>
<path d="M329.051 156.19V38.79H319.991V156.19H329.051Z" fill="#E0E0E0"/>
<path d="M281.381 156.19V38.79H272.321V156.19H281.381Z" fill="#E0E0E0"/>
<path d="M332.23 160.05V34.27H323.17V160.05H332.23Z" fill="#F0F0F0"/>
<path d="M284.561 160.05V34.27H275.501V160.05H284.561Z" fill="#F0F0F0"/>
<path d="M373.369 156.19V38.79H370.839V156.19H373.369Z" fill="#E0E0E0"/>
<path d="M119.34 135.03C119.34 135.03 101 103.42 126.44 78.25C126.44 78.25 133.08 82.58 132.98 88.4C132.88 94.22 125.87 95.69 127.38 100.55C128.89 105.41 135.5 110.17 131.16 114.18C126.82 118.19 131.86 121.77 131.57 126.68C131.28 131.6 119.35 135.03 119.35 135.03H119.34Z" fill="#E0E0E0"/>
<path d="M122.22 140.2C122.22 140.2 129.65 104.42 97.5804 88.5601C97.5804 88.5601 92.6404 94.7601 94.5704 100.25C96.5004 105.74 103.62 104.93 103.72 110.01C103.82 115.09 99.0404 121.7 104.43 124.14C109.82 126.58 106.16 131.56 107.99 136.13C109.82 140.7 122.22 140.2 122.22 140.2Z" fill="#E6E6E6"/>
<path d="M105.891 131.12C105.891 131.12 106.211 162 118.561 162C130.911 162 131.231 131.12 131.231 131.12H105.901H105.891Z" fill="#F0F0F0"/>
<path d="M31.6916 150.38C31.6916 150.38 32.3816 162 58.7516 162C85.1216 162 85.8116 150.38 85.8116 150.38H31.6816H31.6916Z" fill="#E6E6E6"/>
<path d="M309.701 220.44H295.781C294.046 220.44 292.641 221.846 292.641 223.58V246.6C292.641 248.334 294.046 249.74 295.781 249.74H309.701C311.435 249.74 312.841 248.334 312.841 246.6V223.58C312.841 221.846 311.435 220.44 309.701 220.44Z" fill="#F0F0F0"/>
<path d="M346.621 230.03H337.251C336.085 230.03 335.141 230.974 335.141 232.14V247.64C335.141 248.805 336.085 249.75 337.251 249.75H346.621C347.786 249.75 348.731 248.805 348.731 247.64V232.14C348.731 230.974 347.786 230.03 346.621 230.03Z" fill="#E6E6E6"/>
<path d="M348.021 228.11H335.851C335.458 228.11 335.141 228.428 335.141 228.82V229.62C335.141 230.012 335.458 230.33 335.851 230.33H348.021C348.413 230.33 348.731 230.012 348.731 229.62V228.82C348.731 228.428 348.413 228.11 348.021 228.11Z" fill="#F0F0F0"/>
<path d="M260.422 233.44C260.422 233.44 260.922 249.74 280.012 249.74C299.102 249.74 299.602 233.44 299.602 233.44H260.422Z" fill="#E6E6E6"/>
<path d="M212.942 211.92H241.832V206.22H212.942V211.92Z" fill="#E0E0E0"/>
<path d="M385.462 206.22H241.832V211.92H385.462V206.22Z" fill="#F0F0F0"/>
<path d="M212.942 255.44H241.832V249.74H212.942V255.44Z" fill="#E0E0E0"/>
<path d="M385.462 249.75H241.832V255.45H385.462V249.75Z" fill="#F0F0F0"/>
<path d="M223.352 211.92H218.021V335.84H223.352V211.92Z" fill="#E0E0E0"/>
<path d="M247.162 211.92H241.832V335.84H247.162V211.92Z" fill="#F0F0F0"/>
<path d="M366.982 211.92H361.652V335.84H366.982V211.92Z" fill="#E0E0E0"/>
<path d="M385.461 211.92H380.131V335.84H385.461V211.92Z" fill="#F0F0F0"/>
<path d="M31.6911 169.25H4.37109V328.34H31.6911V169.25Z" fill="#E6E6E6"/>
<path d="M144.341 328.34H9.62109V335.85H144.341V328.34Z" fill="#E6E6E6"/>
<path d="M31.692 328.34H149.582L149.582 169.25L31.692 169.25L31.692 328.34Z" fill="#F0F0F0"/>
<path d="M42.4318 268.22H138.842V229.36H42.4318V268.22Z" fill="#E6E6E6"/>
<path d="M42.4318 314.16H138.842V275.3H42.4318V314.16Z" fill="#E6E6E6"/>
<path d="M101.46 233.62H79.8104C78.3404 233.62 77.1504 232.42 77.1504 230.96C77.1504 229.49 78.3504 228.3 79.8104 228.3H101.46C102.93 228.3 104.12 229.5 104.12 230.96C104.12 232.43 102.92 233.62 101.46 233.62Z" fill="#F0F0F0"/>
<path d="M42.4318 222.28H138.842V183.42H42.4318V222.28Z" fill="#E6E6E6"/>
<path d="M101.46 187.68H79.8104C78.3404 187.68 77.1504 186.48 77.1504 185.02C77.1504 183.55 78.3504 182.36 79.8104 182.36H101.46C102.93 182.36 104.12 183.56 104.12 185.02C104.12 186.49 102.92 187.68 101.46 187.68Z" fill="#F0F0F0"/>
<path d="M101.46 279.57H79.8104C78.3404 279.57 77.1504 278.37 77.1504 276.91C77.1504 275.44 78.3504 274.25 79.8104 274.25H101.46C102.93 274.25 104.12 275.45 104.12 276.91C104.12 278.38 102.92 279.57 101.46 279.57Z" fill="#F0F0F0"/>
<path d="M153.221 162H31.6914V169.25H153.221V162Z" fill="#E6E6E6"/>
<path d="M0.551411 169.25H31.6914V162H0.551411V169.25Z" fill="#E0E0E0"/>
<path d="M62.1414 38.79H17.9414V87.33H62.1414V38.79Z" fill="#E6E6E6"/>
<path d="M66.9315 38.79H21.2715V87.33H66.9315V38.79Z" fill="#F0F0F0"/>
<path d="M63.1016 83.4999V42.6099H25.0916V83.4999H63.1016Z" fill="#FAFAFA"/>
<path d="M53.8906 73.59V52.52H34.3106V73.59H53.8906Z" fill="#F0F0F0"/>
<path d="M108.741 24.46H75.2207V60.47H108.741V24.46Z" fill="#E6E6E6"/>
<path d="M112.302 24.46H78.4316V60.47H112.302V24.46Z" fill="#F0F0F0"/>
<path d="M109.451 57.6298V27.2998H81.2612V57.6298H109.451Z" fill="#FAFAFA"/>
<path d="M95.3604 34.7998L87.6504 48.1498H103.07L95.3604 34.7998Z" fill="#F0F0F0"/>
<path d="M361.8 99.2598H263.7C258.525 99.2598 254.33 103.455 254.33 108.63V135.31C254.33 140.485 258.525 144.68 263.7 144.68H361.8C366.975 144.68 371.17 140.485 371.17 135.31V108.63C371.17 103.455 366.975 99.2598 361.8 99.2598Z" fill="#FF9F4B"/>
<path d="M342.34 106.92H265.71C264.805 106.92 264.07 107.654 264.07 108.56V110.36C264.07 111.266 264.805 112 265.71 112H342.34C343.246 112 343.98 111.266 343.98 110.36V108.56C343.98 107.654 343.246 106.92 342.34 106.92Z" fill="#FF9F4B"/>
<path d="M318.07 119.16H265.71C264.805 119.16 264.07 119.894 264.07 120.8V122.6C264.07 123.506 264.805 124.24 265.71 124.24H318.07C318.976 124.24 319.71 123.506 319.71 122.6V120.8C319.71 119.894 318.976 119.16 318.07 119.16Z" fill="#FF9F4B"/>
<path d="M304.03 131.41H265.71C264.805 131.41 264.07 132.144 264.07 133.05V134.85C264.07 135.756 264.805 136.49 265.71 136.49H304.03C304.936 136.49 305.67 135.756 305.67 134.85V133.05C305.67 132.144 304.936 131.41 304.03 131.41Z" fill="#FF9F4B"/>
<path d="M351.521 131.41H313.201C312.295 131.41 311.561 132.144 311.561 133.05V134.85C311.561 135.756 312.295 136.49 313.201 136.49H351.521C352.426 136.49 353.161 135.756 353.161 134.85V133.05C353.161 132.144 352.426 131.41 351.521 131.41Z" fill="#FF9F4B"/>
<g opacity="0.5">
<path d="M342.34 106.92H265.71C264.805 106.92 264.07 107.654 264.07 108.56V110.36C264.07 111.266 264.805 112 265.71 112H342.34C343.246 112 343.98 111.266 343.98 110.36V108.56C343.98 107.654 343.246 106.92 342.34 106.92Z" fill="white"/>
<path d="M318.07 119.16H265.71C264.805 119.16 264.07 119.894 264.07 120.8V122.6C264.07 123.506 264.805 124.24 265.71 124.24H318.07C318.976 124.24 319.71 123.506 319.71 122.6V120.8C319.71 119.894 318.976 119.16 318.07 119.16Z" fill="white"/>
<path d="M304.03 131.41H265.71C264.805 131.41 264.07 132.144 264.07 133.05V134.85C264.07 135.756 264.805 136.49 265.71 136.49H304.03C304.936 136.49 305.67 135.756 305.67 134.85V133.05C305.67 132.144 304.936 131.41 304.03 131.41Z" fill="white"/>
<path d="M351.521 131.41H313.201C312.295 131.41 311.561 132.144 311.561 133.05V134.85C311.561 135.756 312.295 136.49 313.201 136.49H351.521C352.426 136.49 353.161 135.756 353.161 134.85V133.05C353.161 132.144 352.426 131.41 351.521 131.41Z" fill="white"/>
</g>
<path d="M283.221 88.6699H171.871C164.282 88.6699 158.131 94.8215 158.131 102.41V141.53C158.131 149.118 164.282 155.27 171.871 155.27H283.221C290.809 155.27 296.961 149.118 296.961 141.53V102.41C296.961 94.8215 290.809 88.6699 283.221 88.6699Z" fill="#FF9F4B"/>
<path d="M287.16 99.9102H174.82C173.489 99.9102 172.41 100.989 172.41 102.32V104.95C172.41 106.281 173.489 107.36 174.82 107.36H287.16C288.491 107.36 289.57 106.281 289.57 104.95V102.32C289.57 100.989 288.491 99.9102 287.16 99.9102Z" fill="#FF9F4B"/>
<path d="M251.57 117.86H174.82C173.489 117.86 172.41 118.939 172.41 120.27V122.9C172.41 124.231 173.489 125.31 174.82 125.31H251.57C252.901 125.31 253.98 124.231 253.98 122.9V120.27C253.98 118.939 252.901 117.86 251.57 117.86Z" fill="#FF9F4B"/>
<path d="M230.99 135.81H174.82C173.489 135.81 172.41 136.889 172.41 138.22V140.85C172.41 142.181 173.489 143.26 174.82 143.26H230.99C232.321 143.26 233.4 142.181 233.4 140.85V138.22C233.4 136.889 232.321 135.81 230.99 135.81Z" fill="#FF9F4B"/>
<path d="M291.251 135.81H244.451C243.12 135.81 242.041 136.889 242.041 138.22V140.85C242.041 142.181 243.12 143.26 244.451 143.26H291.251C292.582 143.26 293.661 142.181 293.661 140.85V138.22C293.661 136.889 292.582 135.81 291.251 135.81Z" fill="#FF9F4B"/>
<g opacity="0.5">
<path d="M287.16 99.9102H174.82C173.489 99.9102 172.41 100.989 172.41 102.32V104.95C172.41 106.281 173.489 107.36 174.82 107.36H287.16C288.491 107.36 289.57 106.281 289.57 104.95V102.32C289.57 100.989 288.491 99.9102 287.16 99.9102Z" fill="white"/>
<path d="M251.57 117.86H174.82C173.489 117.86 172.41 118.939 172.41 120.27V122.9C172.41 124.231 173.489 125.31 174.82 125.31H251.57C252.901 125.31 253.98 124.231 253.98 122.9V120.27C253.98 118.939 252.901 117.86 251.57 117.86Z" fill="white"/>
<path d="M230.99 135.81H174.82C173.489 135.81 172.41 136.889 172.41 138.22V140.85C172.41 142.181 173.489 143.26 174.82 143.26H230.99C232.321 143.26 233.4 142.181 233.4 140.85V138.22C233.4 136.889 232.321 135.81 230.99 135.81Z" fill="white"/>
<path d="M291.251 135.81H244.451C243.12 135.81 242.041 136.889 242.041 138.22V140.85C242.041 142.181 243.12 143.26 244.451 143.26H291.251C292.582 143.26 293.661 142.181 293.661 140.85V138.22C293.661 136.889 292.582 135.81 291.251 135.81Z" fill="white"/>
</g>
<path d="M213.991 167.34H160.361C156.816 167.34 153.941 170.214 153.941 173.76V254.1C153.941 257.646 156.816 260.52 160.361 260.52H213.991C217.537 260.52 220.411 257.646 220.411 254.1V173.76C220.411 170.214 217.537 167.34 213.991 167.34Z" fill="#FF9F4B"/>
<path opacity="0.4" d="M213.991 167.34H160.361C156.816 167.34 153.941 170.214 153.941 173.76V254.1C153.941 257.646 156.816 260.52 160.361 260.52H213.991C217.537 260.52 220.411 257.646 220.411 254.1V173.76C220.411 170.214 217.537 167.34 213.991 167.34Z" fill="black"/>
<path d="M211.531 177.06H162.811C162.159 177.06 161.631 177.588 161.631 178.24V180.01C161.631 180.662 162.159 181.19 162.811 181.19H211.531C212.183 181.19 212.711 180.662 212.711 180.01V178.24C212.711 177.588 212.183 177.06 211.531 177.06Z" fill="#FAFAFA"/>
<path d="M196.021 187.01H162.811C162.159 187.01 161.631 187.538 161.631 188.19V189.96C161.631 190.611 162.159 191.14 162.811 191.14H196.021C196.673 191.14 197.201 190.611 197.201 189.96V188.19C197.201 187.538 196.673 187.01 196.021 187.01Z" fill="#FAFAFA"/>
<path d="M211.531 196.95H162.811C162.159 196.95 161.631 197.478 161.631 198.13V199.9C161.631 200.551 162.159 201.08 162.811 201.08H211.531C212.183 201.08 212.711 200.551 212.711 199.9V198.13C212.711 197.478 212.183 196.95 211.531 196.95Z" fill="#FAFAFA"/>
<path d="M180.921 206.9H162.811C162.159 206.9 161.631 207.428 161.631 208.08V209.85C161.631 210.502 162.159 211.03 162.811 211.03H180.921C181.573 211.03 182.101 210.502 182.101 209.85V208.08C182.101 207.428 181.573 206.9 180.921 206.9Z" fill="#FAFAFA"/>
<path d="M206.261 206.9H188.151C187.499 206.9 186.971 207.428 186.971 208.08V209.85C186.971 210.502 187.499 211.03 188.151 211.03H206.261C206.912 211.03 207.441 210.502 207.441 209.85V208.08C207.441 207.428 206.912 206.9 206.261 206.9Z" fill="#FAFAFA"/>
<path d="M211.531 216.84H162.811C162.159 216.84 161.631 217.368 161.631 218.02V219.79C161.631 220.442 162.159 220.97 162.811 220.97H211.531C212.183 220.97 212.711 220.442 212.711 219.79V218.02C212.711 217.368 212.183 216.84 211.531 216.84Z" fill="#FAFAFA"/>
<path d="M211.531 226.79H162.811C162.159 226.79 161.631 227.318 161.631 227.97V229.74C161.631 230.392 162.159 230.92 162.811 230.92H211.531C212.183 230.92 212.711 230.392 212.711 229.74V227.97C212.711 227.318 212.183 226.79 211.531 226.79Z" fill="#FAFAFA"/>
<path d="M202.891 236.73H162.811C162.159 236.73 161.631 237.258 161.631 237.91V239.68C161.631 240.332 162.159 240.86 162.811 240.86H202.891C203.543 240.86 204.071 240.332 204.071 239.68V237.91C204.071 237.258 203.543 236.73 202.891 236.73Z" fill="#FAFAFA"/>
<path d="M181.511 246.68H162.811C162.159 246.68 161.631 247.208 161.631 247.86V249.63C161.631 250.281 162.159 250.81 162.811 250.81H181.511C182.163 250.81 182.691 250.281 182.691 249.63V247.86C182.691 247.208 182.163 246.68 181.511 246.68Z" fill="#FAFAFA"/>
<path d="M228.501 166.78H154.121L186.971 192.95L237.401 211.92V175.68C237.401 170.78 233.391 166.78 228.501 166.78Z" fill="#FF9F4B"/>
<path opacity="0.4" d="M228.501 166.78H154.121L186.971 192.95L237.401 211.92V175.68C237.401 170.78 233.391 166.78 228.501 166.78Z" fill="black"/>
<path d="M225.252 180.25H170.822C170.004 180.25 169.342 180.913 169.342 181.73V184.49C169.342 185.307 170.004 185.97 170.822 185.97H225.252C226.069 185.97 226.732 185.307 226.732 184.49V181.73C226.732 180.913 226.069 180.25 225.252 180.25Z" fill="#FAFAFA"/>
<path d="M357.141 237.62V185.3C357.141 181.29 353.89 178.04 349.881 178.04H259.031C255.021 178.04 251.771 181.29 251.771 185.3V237.62C251.771 241.63 255.021 244.88 259.031 244.88H349.881C353.89 244.88 357.141 241.63 357.141 237.62Z" fill="#FF9F4B"/>
<path d="M373.73 221.03V168.71C373.73 164.701 370.48 161.45 366.47 161.45H275.62C271.611 161.45 268.36 164.701 268.36 168.71V221.03C268.36 225.04 271.611 228.29 275.62 228.29H366.47C370.48 228.29 373.73 225.04 373.73 221.03Z" fill="#FF9F4B"/>
<path opacity="0.5" d="M373.73 221.03V168.71C373.73 164.701 370.48 161.45 366.47 161.45H275.62C271.611 161.45 268.36 164.701 268.36 168.71V221.03C268.36 225.04 271.611 228.29 275.62 228.29H366.47C370.48 228.29 373.73 225.04 373.73 221.03Z" fill="white"/>
<path d="M364.512 203.11V170.9C364.512 169.116 363.066 167.67 361.282 167.67H331.592C329.808 167.67 328.362 169.116 328.362 170.9V203.11C328.362 204.894 329.808 206.34 331.592 206.34H361.282C363.066 206.34 364.512 204.894 364.512 203.11Z" fill="#FF9F4B"/>
<path opacity="0.7" d="M364.512 203.11V170.9C364.512 169.116 363.066 167.67 361.282 167.67H331.592C329.808 167.67 328.362 169.116 328.362 170.9V203.11C328.362 204.894 329.808 206.34 331.592 206.34H361.282C363.066 206.34 364.512 204.894 364.512 203.11Z" fill="white"/>
<path d="M322.711 218.68V194C322.711 192.63 321.601 191.52 320.231 191.52H297.481C296.111 191.52 295.001 192.63 295.001 194V218.68C295.001 220.05 296.111 221.16 297.481 221.16H320.231C321.601 221.16 322.711 220.05 322.711 218.68Z" fill="#FF9F4B"/>
<path opacity="0.3" d="M322.711 218.68V194C322.711 192.63 321.601 191.52 320.231 191.52H297.481C296.111 191.52 295.001 192.63 295.001 194V218.68C295.001 220.05 296.111 221.16 297.481 221.16H320.231C321.601 221.16 322.711 220.05 322.711 218.68Z" fill="white"/>
<path d="M308.861 62.21V48.88C308.861 44.8041 305.557 41.5 301.481 41.5L57.3513 41.5C53.2755 41.5 49.9713 44.8041 49.9713 48.88V62.21C49.9713 66.2859 53.2755 69.59 57.3513 69.59L301.481 69.59C305.557 69.59 308.861 66.2859 308.861 62.21Z" fill="#FF9F4B"/>
<path opacity="0.5" d="M308.861 62.21V48.88C308.861 44.8041 305.557 41.5 301.481 41.5L57.3513 41.5C53.2755 41.5 49.9713 44.8041 49.9713 48.88V62.21C49.9713 66.2859 53.2755 69.59 57.3513 69.59L301.481 69.59C305.557 69.59 308.861 66.2859 308.861 62.21Z" fill="white"/>
<path d="M262.67 74.2901V64.6201H192.42V74.2901H262.67Z" fill="#FF9F4B"/>
<path opacity="0.5" d="M262.67 74.2901V64.6201H192.42V74.2901H262.67Z" fill="white"/>
<path d="M334.031 20.71V7.38C334.031 3.30414 330.727 0 326.651 0L82.5212 0C78.4454 0 75.1412 3.30414 75.1412 7.38V20.71C75.1412 24.7859 78.4454 28.09 82.5212 28.09L326.651 28.09C330.727 28.09 334.031 24.7859 334.031 20.71Z" fill="#FF9F4B"/>
<path d="M72.3608 147.71C71.4808 149.67 70.5108 151.86 69.6608 153.98C68.8008 156.12 67.9408 158.26 67.1708 160.42C65.5908 164.72 64.2508 169.08 63.3808 173.35L63.0908 174.95L62.9908 175.56C62.9608 175.72 62.9608 175.95 62.9308 176.14C62.8808 176.99 62.9008 178.01 62.9908 179.06C63.1808 181.17 63.5208 183.43 63.9408 185.69C64.7808 190.22 65.8608 194.89 66.9208 199.48L61.7908 201.51C59.4008 197.12 57.3808 192.67 55.6908 187.91C54.8608 185.53 54.1108 183.09 53.5808 180.45C53.3208 179.12 53.0808 177.75 53.0208 176.19C53.0208 175.78 52.9908 175.41 53.0108 174.97C53.0308 174.55 53.0408 174.07 53.0808 173.78L53.2808 171.8C53.5908 169.19 54.0508 166.63 54.6508 164.15C55.2108 161.65 55.9308 159.22 56.7008 156.82C57.4708 154.42 58.3308 152.06 59.2708 149.74C59.7408 148.58 60.2308 147.43 60.7308 146.28C61.2308 145.11 61.7508 144.03 62.3708 142.8L72.3708 147.71H72.3608Z" fill="#E4897B"/>
<path d="M66.7106 198.13L70.6106 201.94L62.1006 205.9C62.1006 205.9 60.0306 202.29 61.4606 199.03L66.7106 198.13Z" fill="#E4897B"/>
<path d="M73.7596 207.61L66.5696 210.55L62.0996 205.9L70.6096 201.94L73.7596 207.61Z" fill="#E4897B"/>
<path opacity="0.4" d="M219.411 203.51C179.891 199.1 151.421 163.48 155.841 123.95C160.261 84.4202 195.881 55.9602 235.401 60.3802C274.931 64.8002 303.401 100.41 298.981 139.94C294.561 179.47 258.941 207.93 219.411 203.51Z" fill="#FAFAFA"/>
<path opacity="0.4" d="M271.79 75.2399L162.29 162.73C161.82 161.74 161.38 160.74 160.95 159.73C158.24 153.29 156.46 146.41 155.75 139.25L250.33 63.6699C258.22 66.2999 265.45 70.2499 271.79 75.2299V75.2399Z" fill="#FAFAFA"/>
<path opacity="0.4" d="M297.06 113.57L194.11 195.82C184.24 190.68 175.8 183.35 169.34 174.54L281.76 84.7202C288.93 92.9602 294.22 102.82 297.06 113.58V113.57Z" fill="#FAFAFA"/>
<path d="M146.389 104.48L145.439 104.16C147.089 99.2903 149.169 94.5603 151.619 90.1103L152.499 90.5903C150.079 95.0003 148.019 99.6703 146.389 104.48ZM158.529 81.1303L157.719 80.5403C165.819 69.5303 176.669 60.4703 189.089 54.3303L189.529 55.2303C177.249 61.2903 166.529 70.2503 158.519 81.1303H158.529ZM268.119 56.6003C264.869 54.8503 261.469 53.2903 258.019 51.9803L258.379 51.0503C261.869 52.3803 265.309 53.9503 268.599 55.7303L268.129 56.6103L268.119 56.6003Z" fill="#FF9F4B"/>
<path opacity="0.3" d="M146.389 104.48L145.439 104.16C147.089 99.2903 149.169 94.5603 151.619 90.1103L152.499 90.5903C150.079 95.0003 148.019 99.6703 146.389 104.48ZM158.529 81.1303L157.719 80.5403C165.819 69.5303 176.669 60.4703 189.089 54.3303L189.529 55.2303C177.249 61.2903 166.529 70.2503 158.519 81.1303H158.529ZM268.119 56.6003C264.869 54.8503 261.469 53.2903 258.019 51.9803L258.379 51.0503C261.869 52.3803 265.309 53.9503 268.599 55.7303L268.129 56.6103L268.119 56.6003Z" fill="black"/>
<path d="M301.87 95.1801C281.57 54.0501 231.77 37.1701 190.64 57.4701C152.41 76.3401 135.14 120.71 149.22 159.91C142.54 162.25 135.94 164.77 129.38 167.35C119.92 171.1 110.56 175.03 101.26 179.11C91.9802 183.22 82.7402 187.41 73.6002 191.79C69.0002 193.93 64.4702 196.21 59.9102 198.41C57.6002 199.46 55.4302 200.8 53.5702 202.75C52.6302 203.72 51.7802 204.84 51.0002 206.13C50.2302 207.44 49.5302 208.87 49.0402 210.76C47.5002 216.74 50.5102 223.11 56.3702 225.61C58.1602 226.37 59.7302 226.68 61.2302 226.87C62.7302 227.04 64.1402 227.04 65.4802 226.88C68.1602 226.59 70.5502 225.69 72.7802 224.49C77.3102 222.2 81.8702 219.99 86.3602 217.64C95.4002 213.04 104.34 208.25 113.25 203.39C122.14 198.49 130.96 193.45 139.69 188.22C145.73 184.58 151.74 180.88 157.67 177C180.23 212.01 225.94 225.29 264.18 206.41C305.31 186.11 322.19 136.31 301.89 95.1701L301.87 95.1801ZM256.41 190.71C223.95 206.73 184.66 193.4 168.64 160.95C152.62 128.5 165.94 89.2101 198.39 73.1801C230.85 57.1601 270.14 70.4901 286.16 102.93C302.18 135.39 288.87 174.68 256.41 190.7V190.71Z" fill="#FF9F4B"/>
<path opacity="0.3" d="M301.87 95.1801C281.57 54.0501 231.77 37.1701 190.64 57.4701C152.41 76.3401 135.14 120.71 149.22 159.91C142.54 162.25 135.94 164.77 129.38 167.35C119.92 171.1 110.56 175.03 101.26 179.11C91.9802 183.22 82.7402 187.41 73.6002 191.79C69.0002 193.93 64.4702 196.21 59.9102 198.41C57.6002 199.46 55.4302 200.8 53.5702 202.75C52.6302 203.72 51.7802 204.84 51.0002 206.13C50.2302 207.44 49.5302 208.87 49.0402 210.76C47.5002 216.74 50.5102 223.11 56.3702 225.61C58.1602 226.37 59.7302 226.68 61.2302 226.87C62.7302 227.04 64.1402 227.04 65.4802 226.88C68.1602 226.59 70.5502 225.69 72.7802 224.49C77.3102 222.2 81.8702 219.99 86.3602 217.64C95.4002 213.04 104.34 208.25 113.25 203.39C122.14 198.49 130.96 193.45 139.69 188.22C145.73 184.58 151.74 180.88 157.67 177C180.23 212.01 225.94 225.29 264.18 206.41C305.31 186.11 322.19 136.31 301.89 95.1701L301.87 95.1801ZM256.41 190.71C223.95 206.73 184.66 193.4 168.64 160.95C152.62 128.5 165.94 89.2101 198.39 73.1801C230.85 57.1601 270.14 70.4901 286.16 102.93C302.18 135.39 288.87 174.68 256.41 190.7V190.71Z" fill="black"/>
<path d="M100.02 111.99C100.02 112.58 100.33 113.06 100.72 113.06C101.11 113.06 101.42 112.58 101.42 111.99C101.42 111.4 101.11 110.92 100.72 110.92C100.33 110.92 100.02 111.4 100.02 111.99Z" fill="#263238"/>
<path d="M100.279 113.07C100.279 113.07 101.619 116.49 103.109 118.14C102.059 119.12 100.279 118.67 100.279 118.67V113.07Z" fill="#DE5753"/>
<path d="M97.9294 108.71C97.8194 108.71 97.7194 108.66 97.6494 108.56C97.5394 108.4 97.5694 108.19 97.7294 108.07C99.2894 106.95 100.799 107.51 100.859 107.53C101.039 107.6 101.129 107.8 101.059 107.98C100.989 108.16 100.789 108.25 100.609 108.18C100.549 108.16 99.3794 107.74 98.1394 108.63C98.0794 108.67 98.0094 108.7 97.9394 108.7L97.9294 108.71Z" fill="#263238"/>
<path d="M79.8004 116.46C80.8504 121.83 81.9104 131.68 78.1504 135.27C78.1504 135.27 79.6204 140.72 89.6104 140.72C100.59 140.72 94.8604 135.27 94.8604 135.27C88.8704 133.84 89.0204 129.39 90.0704 125.22L79.8204 116.47L79.8004 116.46Z" fill="#E4897B"/>
<path d="M73.6501 138.08C74.8401 136.23 72.8301 131.75 72.8301 131.75C72.8301 131.75 90.5201 127.3 97.7501 134.13C99.2501 135.55 97.5801 137.62 97.5801 137.62L73.6501 138.08Z" fill="#FF9F4B"/>
<path opacity="0.1" d="M73.6501 138.08C74.8401 136.23 72.8301 131.75 72.8301 131.75C72.8301 131.75 90.5201 127.3 97.7501 134.13C99.2501 135.55 97.5801 137.62 97.5801 137.62L73.6501 138.08Z" fill="black"/>
<path d="M44.3994 342.12C43.4694 342.12 41.9794 340.56 41.5394 339.98C41.4994 339.93 41.4894 339.85 41.5294 339.79C41.5594 339.73 41.6294 339.7 41.6994 339.7C41.7994 339.7 44.2594 339.92 44.9194 340.79C45.0694 340.99 45.1294 341.21 45.0894 341.45C45.0094 341.9 44.7594 342.05 44.5694 342.09C44.5194 342.1 44.4594 342.11 44.3994 342.11V342.12ZM42.0794 340.1C42.8094 340.94 43.9794 341.89 44.4794 341.77C44.5294 341.76 44.6794 341.72 44.7394 341.4C44.7694 341.26 44.7394 341.14 44.6394 341.02C44.2394 340.5 42.8994 340.22 42.0794 340.11V340.1Z" fill="#FF9F4B"/>
<path d="M42.1896 340.09C41.9796 340.09 41.7996 340.08 41.6496 340.05C41.5896 340.04 41.5396 339.99 41.5196 339.93C41.4996 339.87 41.5196 339.8 41.5596 339.76C41.6196 339.69 43.0996 338.17 44.1996 338.17C44.4896 338.17 44.7296 338.27 44.9096 338.47C45.1996 338.77 45.1196 339.04 45.0496 339.17C44.7196 339.78 43.1896 340.09 42.1896 340.09ZM42.0596 339.74C42.9996 339.78 44.4996 339.43 44.7396 338.99C44.7596 338.95 44.8096 338.86 44.6496 338.69C44.5296 338.56 44.3796 338.5 44.1896 338.5C43.5296 338.5 42.5896 339.24 42.0596 339.73V339.74Z" fill="#FF9F4B"/>
<path d="M110.39 364.81C109.51 364.81 108.61 364.7 108.14 364.6C108.07 364.59 108.01 364.53 108 364.46C107.99 364.39 108.02 364.32 108.08 364.28C108.19 364.22 110.75 362.75 111.98 363.09C112.23 363.16 112.42 363.3 112.53 363.5C112.74 363.86 112.65 364.11 112.54 364.26C112.23 364.68 111.32 364.81 110.38 364.81H110.39ZM108.7 364.35C110.07 364.54 111.92 364.53 112.27 364.06C112.31 364 112.36 363.89 112.24 363.68C112.17 363.56 112.06 363.48 111.9 363.44C111.15 363.23 109.61 363.9 108.71 364.36L108.7 364.35Z" fill="#FF9F4B"/>
<path d="M108.17 364.61C108.17 364.61 108.1 364.6 108.07 364.58C108.02 364.54 107.99 364.48 108 364.42C108 364.34 108.21 362.36 109.14 361.59C109.42 361.36 109.75 361.26 110.1 361.29C110.58 361.34 110.72 361.58 110.75 361.78C110.88 362.61 109.13 364.2 108.24 364.6C108.22 364.6 108.19 364.61 108.17 364.61ZM109.96 361.63C109.74 361.63 109.54 361.7 109.36 361.86C108.75 362.36 108.48 363.55 108.39 364.12C109.29 363.58 110.49 362.33 110.41 361.83C110.41 361.79 110.38 361.67 110.07 361.63C110.03 361.63 110 361.63 109.97 361.63H109.96Z" fill="#FF9F4B"/>
<path d="M100.09 364.44H107.44L108.17 347.42H100.82L100.09 364.44Z" fill="#E4897B"/>
<path d="M34.6309 335.23L40.7809 339.26L54.3409 327.8L48.1909 323.78L34.6309 335.23Z" fill="#E4897B"/>
<path d="M41.7902 338.87L35.4102 333.64C35.1802 333.45 34.8402 333.45 34.6102 333.64L29.3502 337.77C28.8002 338.2 28.8102 339.03 29.3502 339.46C31.6102 341.25 32.8002 342 35.6102 344.3C37.3402 345.72 41.6302 350.03 44.0202 351.98C46.3502 353.89 48.6502 351.83 47.8502 350.82C44.2602 346.27 42.8102 342.38 42.4402 339.97C42.3702 339.54 42.1402 339.14 41.8002 338.86L41.7902 338.87Z" fill="#263238"/>
<path d="M107.39 363.59H99.37C99.07 363.59 98.81 363.8 98.74 364.09L97.29 370.62C97.14 371.3 97.65 371.94 98.35 371.93C101.24 371.88 105.43 371.71 109.06 371.71C113.31 371.71 116.99 371.94 121.97 371.94C124.99 371.94 125.82 368.89 124.56 368.61C118.81 367.35 114.12 367.22 109.15 364.16C108.61 363.83 108.01 363.59 107.38 363.59H107.39Z" fill="#263238"/>
<path d="M63.6592 137.47C57.2892 140.52 53.6992 160.57 53.6992 160.57L69.2692 166.79C69.2692 166.79 72.7692 158.49 74.7792 149.64C76.8792 140.36 70.1792 134.36 63.6592 137.48V137.47Z" fill="#263238"/>
<path d="M71.921 148.77C68.071 152.67 66.311 160.31 65.541 165.28L69.271 166.77C69.271 166.77 72.651 158.78 74.671 150.12C74.341 148 73.521 147.15 71.921 148.77Z" fill="#203048"/>
<path d="M106.14 137.31C106.14 137.31 113.96 146.14 106.57 200.81H67.2805C67.0105 194.78 70.8005 165.35 64.9805 136.93C64.9805 136.93 71.7205 135.58 78.1305 135.27C83.1505 135.03 90.4205 134.87 94.8305 135.27C100.65 135.8 106.13 137.31 106.13 137.31H106.14Z" fill="#263238"/>
<path d="M109.73 158.52L103.11 147.11C101.83 153.36 101.29 157.22 101.56 163.38C101.74 167.3 105.33 181.82 108.54 183.94C109.55 173.27 109.84 164.96 109.73 158.52Z" fill="#203048"/>
<path d="M110.649 145.11C111.629 149.97 112.659 154.95 113.719 159.84C114.779 164.74 115.899 169.62 117.189 174.35C117.519 175.51 117.829 176.71 118.199 177.84L118.469 178.7L118.599 179.13C118.599 179.13 118.559 179.09 118.549 179.08C118.469 178.99 118.389 178.98 118.449 179.08C118.529 179.28 119.159 179.71 119.969 180.03C120.799 180.35 121.809 180.63 122.879 180.85C127.219 181.68 132.329 181.79 137.179 181.78L138.129 187.21C136.789 187.64 135.529 187.95 134.219 188.26C132.919 188.57 131.599 188.83 130.259 189.03C127.589 189.44 124.849 189.71 121.929 189.59C120.469 189.53 118.949 189.39 117.329 188.99C115.719 188.57 113.929 188.01 112.059 186.54C111.149 185.81 110.239 184.8 109.589 183.57C109.429 183.27 109.279 182.93 109.159 182.64L108.979 182.17L108.609 181.22C108.099 179.95 107.679 178.7 107.219 177.44C105.529 172.41 104.119 167.4 102.879 162.36C101.649 157.3 100.579 152.29 99.6895 147.12L110.649 145.12V145.11Z" fill="#E4897B"/>
<path d="M96.3304 142.67C94.2604 149.38 102.65 169.39 102.65 169.39L119.36 165.19C119.36 165.19 118.72 154.8 114.91 146.55C109.17 134.1 98.8105 134.62 96.3205 142.68L96.3304 142.67Z" fill="#263238"/>
<path d="M137.091 181.76L145.411 181.55L141.411 190.2C141.411 190.2 138.031 190.65 135.241 186.08L132.311 182.59L135.681 181.91C136.141 181.82 136.611 181.76 137.091 181.75V181.76Z" fill="#E4897B"/>
<path d="M150.66 183.17L145.9 190.34L141.41 190.21L145.41 181.56L150.66 183.17Z" fill="#E4897B"/>
<path d="M108.169 347.43L107.789 356.2H100.439L100.819 347.43H108.169Z" fill="#CE6F64"/>
<path d="M48.1892 323.78L54.3392 327.81L47.3392 333.71L41.1992 329.68L48.1892 323.78Z" fill="#CE6F64"/>
<path d="M80.2598 110.72C80.6998 118 80.5898 122.28 84.2598 126.02C89.7798 131.64 98.7698 128.32 100.51 121.06C102.08 114.52 101.09 103.72 93.9698 100.82C86.9498 97.9598 79.8098 103.45 80.2498 110.73L80.2598 110.72Z" fill="#E4897B"/>
<path d="M71.7 109.45C73.51 116.09 77.77 123.73 83.28 124.21C90.12 124.81 93.21 117.74 94.11 110.44C98.21 107.63 96.06 104.55 100.17 104.15C105.44 103.65 103.76 93.9903 96.81 92.4403C96.81 92.4403 99.14 96.7903 94.25 94.6003C89.36 92.4103 84.59 91.4603 79.31 92.0103C79.31 92.0103 85.54 95.1303 79.45 96.5203C73.35 97.9103 71.53 101.67 74.34 103.95C74.34 103.95 70.51 105.1 71.7 109.46V109.45Z" fill="#263238"/>
<path d="M89.941 111.94C90.051 113.85 90.941 115.64 92.001 116.81C93.601 118.57 95.271 117.48 95.561 115.33C95.821 113.4 95.291 110.15 93.331 109.17C91.401 108.21 89.811 109.76 89.941 111.94Z" fill="#E4897B"/>
<path d="M92.6392 200.81C92.6392 200.81 99.7992 252.66 94.1592 273.43C85.2192 306.33 51.0392 334.1 51.0392 334.1L39.4492 326.51C39.4492 326.51 68.5592 303.06 72.1192 275.52C75.3192 250.78 67.2792 220.88 67.2792 200.81H92.6292H92.6392Z" fill="#FF9F4B"/>
<path opacity="0.1" d="M92.6392 200.81C92.6392 200.81 99.7992 252.66 94.1592 273.43C85.2192 306.33 51.0392 334.1 51.0392 334.1L39.4492 326.51C39.4492 326.51 68.5592 303.06 72.1192 275.52C75.3192 250.78 67.2792 220.88 67.2792 200.81H92.6292H92.6392Z" fill="black"/>
<path d="M95.6001 230.46C92.2301 226.64 89.3301 224.44 89.3301 224.44C90.5501 241.27 91.5501 266.2 90.4401 283.91C91.9301 280.5 93.1901 276.99 94.1601 273.43C96.9101 263.29 96.6201 245.76 95.6001 230.46Z" fill="#FF9F4B"/>
<path opacity="0.3" d="M95.6001 230.46C92.2301 226.64 89.3301 224.44 89.3301 224.44C90.5501 241.27 91.5501 266.2 90.4401 283.91C91.9301 280.5 93.1901 276.99 94.1601 273.43C96.9101 263.29 96.6201 245.76 95.6001 230.46Z" fill="black"/>
<path d="M55.7105 331.52L51.2206 334.48L38.5605 326.18L42.5106 322.87L55.7105 331.52Z" fill="#FF9F4B"/>
<path opacity="0.3" d="M55.7105 331.52L51.2206 334.48L38.5605 326.18L42.5106 322.87L55.7105 331.52Z" fill="black"/>
<path d="M106.58 200.81C106.58 200.81 117.65 247.71 118.42 270.11C119.29 295.23 110.53 354.5 110.53 354.5H98.09C98.09 354.5 96.56 294.78 96 271.89C95.4 246.94 80.75 200.81 80.75 200.81H106.58Z" fill="#FF9F4B"/>
<path opacity="0.1" d="M106.58 200.81C106.58 200.81 117.65 247.71 118.42 270.11C119.29 295.23 110.53 354.5 110.53 354.5H98.09C98.09 354.5 96.56 294.78 96 271.89C95.4 246.94 80.75 200.81 80.75 200.81H106.58Z" fill="black"/>
<path d="M112.92 349.54C112.98 349.54 112.22 354.71 112.22 354.71H97.0799L96.6699 350.1L112.92 349.54Z" fill="#FF9F4B"/>
<path opacity="0.3" d="M112.92 349.54C112.98 349.54 112.22 354.71 112.22 354.71H97.0799L96.6699 350.1L112.92 349.54Z" fill="black"/>
<path d="M297.949 155.73C298.799 156.53 299.469 157.21 300.169 157.98C300.859 158.73 301.529 159.48 302.179 160.25C303.489 161.78 304.699 163.38 305.879 165.01C308.249 168.25 310.319 171.7 312.159 175.27L312.529 176C312.709 176.36 312.859 176.73 312.979 177.1C313.229 177.85 313.369 178.62 313.419 179.36C313.499 180.85 313.249 182.19 312.879 183.37C312.119 185.74 310.919 187.59 309.669 189.29C307.059 192.63 304.169 195.34 300.869 197.74L298.379 194.88C299.559 193.52 300.779 192.05 301.859 190.58C302.969 189.12 303.989 187.61 304.839 186.08C305.699 184.58 306.379 183.01 306.659 181.66C306.799 180.99 306.809 180.39 306.719 179.96C306.679 179.74 306.619 179.56 306.549 179.41C306.509 179.33 306.469 179.26 306.419 179.19L306.089 178.66C304.159 175.51 302.069 172.47 299.819 169.54C298.709 168.07 297.519 166.66 296.319 165.27C295.729 164.57 295.119 163.89 294.509 163.22C293.909 162.57 293.239 161.86 292.709 161.32L297.959 155.74L297.949 155.73Z" fill="#E4897B"/>
<path d="M299.359 194.03L291.889 192.81L295.789 199.35C295.789 199.35 300.599 199.18 301.969 196.39L299.349 194.03H299.359Z" fill="#E4897B"/>
<path d="M286.369 195.84L289.929 201.14L295.799 199.36L291.889 192.81L286.369 195.84Z" fill="#E4897B"/>
<path d="M299.008 364.73C298.428 364.73 297.898 364.63 297.578 364.34C297.328 364.11 297.228 363.79 297.288 363.4C297.328 363.1 297.498 362.96 297.638 362.9C298.508 362.51 300.788 363.98 301.048 364.14C301.108 364.18 301.138 364.25 301.128 364.32C301.118 364.39 301.058 364.44 300.998 364.46C300.468 364.58 299.708 364.73 299.018 364.73H299.008ZM298.008 363.18C297.918 363.18 297.848 363.19 297.778 363.22C297.718 363.25 297.648 363.3 297.628 363.44C297.588 363.72 297.648 363.92 297.808 364.07C298.188 364.42 299.168 364.46 300.468 364.2C299.668 363.71 298.568 363.17 297.998 363.17L298.008 363.18Z" fill="#FF9F4B"/>
<path d="M300.95 364.46C300.95 364.46 300.89 364.46 300.86 364.44C300.15 364.03 298.78 362.42 298.95 361.57C298.98 361.41 299.1 361.13 299.55 361.08C299.84 361.04 300.08 361.12 300.3 361.32C301.11 362.04 301.13 364.2 301.13 364.29C301.13 364.35 301.1 364.41 301.04 364.44C301.01 364.46 300.98 364.46 300.95 364.46ZM299.67 361.42C299.67 361.42 299.62 361.42 299.59 361.42C299.36 361.45 299.31 361.55 299.3 361.63C299.2 362.14 300.05 363.36 300.76 363.93C300.72 363.21 300.55 362 300.07 361.57C299.95 361.47 299.82 361.41 299.68 361.41L299.67 361.42Z" fill="#FF9F4B"/>
<path d="M264.919 364.73C264.169 364.73 263.489 364.61 263.099 364.27C262.849 364.05 262.749 363.76 262.779 363.41C262.799 363.2 262.899 363.03 263.079 362.94C264.009 362.43 266.989 363.96 267.319 364.14C267.389 364.17 267.419 364.25 267.409 364.32C267.399 364.39 267.339 364.45 267.269 364.47C266.629 364.6 265.739 364.74 264.909 364.74L264.919 364.73ZM263.589 363.18C263.449 363.18 263.339 363.2 263.259 363.24C263.189 363.28 263.149 363.34 263.139 363.43C263.119 363.67 263.189 363.86 263.349 364C263.799 364.41 265.039 364.48 266.699 364.2C265.669 363.71 264.309 363.17 263.599 363.17L263.589 363.18Z" fill="#FF9F4B"/>
<path d="M267.25 364.46C267.25 364.46 267.2 364.46 267.18 364.44C266.29 364.04 264.52 362.42 264.66 361.57C264.69 361.37 264.83 361.12 265.33 361.07C265.69 361.03 266.02 361.14 266.31 361.38C267.25 362.16 267.42 364.18 267.43 364.27C267.43 364.33 267.41 364.39 267.36 364.43C267.33 364.45 267.29 364.46 267.26 364.46H267.25ZM265.46 361.42C265.46 361.42 265.39 361.42 265.35 361.42C265.03 361.45 265.01 361.58 265 361.62C264.92 362.13 266.12 363.4 267.03 363.95C266.94 363.36 266.69 362.15 266.08 361.64C265.89 361.48 265.69 361.41 265.47 361.41L265.46 361.42Z" fill="#FF9F4B"/>
<path d="M279.07 132.74C278.78 137.26 278 146.45 281.47 148.99C281.47 148.99 280.85 153.62 272.66 154.69C263.65 155.87 267.77 150.78 267.77 150.78C272.53 148.96 271.93 145.33 270.62 142.02L279.07 132.74Z" fill="#E4897B"/>
<path d="M260.44 124.75C260.34 124.75 260.24 124.71 260.17 124.63C259.13 123.44 257.83 123.6 257.82 123.61C257.6 123.64 257.45 123.5 257.42 123.31C257.39 123.12 257.53 122.94 257.72 122.91C257.79 122.91 259.41 122.69 260.71 124.17C260.84 124.32 260.82 124.54 260.68 124.67C260.61 124.73 260.53 124.76 260.45 124.76L260.44 124.75Z" fill="#263238"/>
<path d="M258.878 129.18C258.878 129.18 258.198 131.89 257.238 133.28C258.128 133.92 259.428 133.4 259.428 133.4L258.878 129.17V129.18Z" fill="#DE5753"/>
<path d="M259.28 128.08C259.36 128.68 259.1 129.21 258.71 129.26C258.32 129.31 257.94 128.87 257.86 128.27C257.78 127.67 258.04 127.14 258.43 127.09C258.82 127.04 259.2 127.48 259.28 128.08Z" fill="#263238"/>
<path d="M258.609 127.1L257.119 126.87C257.119 126.87 258.009 127.9 258.609 127.1Z" fill="#263238"/>
<path d="M275.488 364.29H267.988L267.488 346.93H274.988L275.488 364.29Z" fill="#E4897B"/>
<path d="M309.529 364.29H302.039L299.629 346.93H307.129L309.529 364.29Z" fill="#E4897B"/>
<path d="M301.58 363.42H310C310.31 363.42 310.55 363.63 310.6 363.93L311.56 370.59C311.66 371.28 311.07 371.93 310.36 371.92C307.42 371.87 306.01 371.7 302.31 371.7C300.03 371.7 296.7 371.94 293.56 371.94C290.42 371.94 290.25 368.83 291.56 368.55C297.43 367.29 298.36 365.55 300.34 363.88C300.7 363.58 301.14 363.42 301.59 363.42H301.58Z" fill="#263238"/>
<path d="M267.739 363.42H276.159C276.469 363.42 276.709 363.63 276.759 363.93L277.719 370.59C277.819 371.28 277.229 371.93 276.519 371.92C273.579 371.87 272.169 371.7 268.469 371.7C266.189 371.7 261.479 371.94 258.339 371.94C255.199 371.94 255.029 368.83 256.339 368.55C262.209 367.29 264.519 365.55 266.499 363.88C266.859 363.58 267.299 363.42 267.749 363.42H267.739Z" fill="#263238"/>
<path d="M267.488 346.94L267.748 355.88H275.248L274.988 346.94H267.488Z" fill="#CE6F64"/>
<path d="M307.129 346.94H299.629L300.879 355.88H308.369L307.129 346.94Z" fill="#CE6F64"/>
<path d="M279.168 123.39C279.678 130.81 280.058 133.94 276.828 138.2C271.978 144.61 262.758 143.62 260.038 136.5C257.588 130.09 257.168 119.04 263.988 115.16C270.708 111.35 278.658 115.96 279.168 123.38V123.39Z" fill="#E4897B"/>
<path d="M283.49 130.28C287.66 132.6 290.74 126.88 290.74 126.88C290.74 126.88 283.28 127.69 283.95 123.25C284.83 117.36 280.62 110.2 270.03 111.12C269.44 111.17 268.88 111.24 268.33 111.33C266.28 110.47 263.5 110.56 261.75 112.85C258.79 113.1 254.71 116.68 257.45 121.41C257.45 121.41 257.69 120.66 258.34 119.94C258.56 122.71 260.99 127.11 264.01 127.4C264.66 131.19 262.14 135.58 263.04 139.54C264.33 145.25 273.96 146.58 273.96 146.58C272.9 143.81 274.52 142.18 274.52 142.18C281.06 145.17 285.37 142.25 285.37 142.25C280.91 140.58 282.26 137.63 282.26 137.63C288.23 139.91 290.75 134.55 290.75 134.55C287.57 134.72 284.88 132.94 283.5 130.3L283.49 130.28Z" fill="#263238"/>
<path d="M266.609 128.53C266.659 130.07 265.989 131.49 265.109 132.4C263.779 133.77 262.159 132.81 261.729 131.06C261.339 129.48 261.559 126.87 263.279 126.16C264.969 125.46 266.559 126.77 266.609 128.53Z" fill="#E4897B"/>
<path d="M272.84 197.67C272.84 197.67 274.75 247.03 279.26 276.01C282.9 299.42 299.07 354.15 299.07 354.15H309.29C309.29 354.15 300.87 301.3 299.02 278.14C294.34 219.54 306.48 206.97 295.05 194.76L272.84 197.67Z" fill="#263238"/>
<path d="M281.379 213.27C281.379 213.27 276.759 212.47 274.059 221.27C275.079 237.94 276.769 260.06 279.259 276C279.809 279.55 280.649 283.83 281.679 288.52C279.729 260.36 281.379 213.27 281.379 213.27Z" fill="#161F33"/>
<path d="M264.869 198.71C264.869 198.71 256.449 253.32 256.939 276.17C257.449 299.94 266.159 354.15 266.159 354.15H276.289C276.289 354.15 274.689 301.33 275.579 277.98C276.559 252.53 286.959 195.82 286.959 195.82L264.859 198.71H264.869Z" fill="#263238"/>
<path d="M310.769 354.62H297.179L296.119 350.06L310.669 350.17L310.769 354.62Z" fill="#FF9F4B"/>
<path opacity="0.2" d="M310.769 354.62H297.179L296.119 350.06L310.669 350.17L310.769 354.62Z" fill="black"/>
<path d="M294.499 149C298.399 149.37 304.349 160.48 304.349 160.48L294.479 168.05C294.479 168.05 286.309 160.88 287.279 156.85C288.289 152.65 290.749 148.63 294.499 148.99V149Z" fill="#FF9F4B"/>
<path opacity="0.1" d="M294.499 149C298.399 149.37 304.349 160.48 304.349 160.48L294.479 168.05C294.479 168.05 286.309 160.88 287.279 156.85C288.289 152.65 290.749 148.63 294.499 148.99V149Z" fill="black"/>
<path d="M291.549 153.77C291.549 153.77 289.979 153.32 288.489 153.43C287.969 154.49 287.569 155.66 287.279 156.85C286.309 160.88 294.479 168.05 294.479 168.05L295.209 167.49L291.549 153.77Z" fill="#FF9F4B"/>
<path opacity="0.3" d="M291.549 153.77C291.549 153.77 289.979 153.32 288.489 153.43C287.969 154.49 287.569 155.66 287.279 156.85C286.309 160.88 294.479 168.05 294.479 168.05L295.209 167.49L291.549 153.77Z" fill="black"/>
<path d="M261.519 164.44C258.669 171.66 255.669 178.98 253.279 186.22C253.129 186.67 252.989 187.12 252.849 187.57L252.509 188.68C252.419 189.03 252.399 189.29 252.509 189.72C252.729 190.57 253.779 191.8 255.099 192.82C257.769 194.92 261.349 196.6 264.789 198.01L263.889 201.7C259.709 201.06 255.769 199.97 251.799 197.75C249.879 196.57 247.789 195.11 246.419 192.29C245.749 190.9 245.469 189.13 245.719 187.52C245.749 187.32 245.789 187.13 245.829 186.93L245.919 186.52L246.099 185.76C246.219 185.25 246.339 184.75 246.469 184.25C247.499 180.27 248.749 176.46 250.089 172.68C251.419 168.89 252.849 165.19 254.449 161.49L261.519 164.44Z" fill="#E4897B"/>
<path d="M255.449 154.33C255.449 154.33 252.069 156.04 264.869 198.71C276.839 197.14 289.219 195.52 295.049 194.76C292.939 182.54 291.929 174.97 294.499 149C294.499 149 287.999 148.45 281.459 148.99C276.349 149.41 272.169 149.79 267.759 150.78C261.939 152.09 255.449 154.33 255.449 154.33Z" fill="#FF9F4B"/>
<path opacity="0.1" d="M255.449 154.33C255.449 154.33 252.069 156.04 264.869 198.71C276.839 197.14 289.219 195.52 295.049 194.76C292.939 182.54 291.929 174.97 294.499 149C294.499 149 287.999 148.45 281.459 148.99C276.349 149.41 272.169 149.79 267.759 150.78C261.939 152.09 255.449 154.33 255.449 154.33Z" fill="black"/>
<path d="M295.27 192.93L296.98 195.45C297.11 195.65 296.89 195.89 296.54 195.94L264.89 200.08C264.62 200.12 264.38 200.01 264.34 199.84L263.71 197.17C263.67 196.99 263.88 196.8 264.18 196.76L294.74 192.76C294.96 192.73 295.18 192.8 295.26 192.92L295.27 192.93Z" fill="#FF9F4B"/>
<path opacity="0.2" d="M295.27 192.93L296.98 195.45C297.11 195.65 296.89 195.89 296.54 195.94L264.89 200.08C264.62 200.12 264.38 200.01 264.34 199.84L263.71 197.17C263.67 196.99 263.88 196.8 264.18 196.76L294.74 192.76C294.96 192.73 295.18 192.8 295.26 192.92L295.27 192.93Z" fill="black"/>
<path d="M291.608 196.88L292.428 196.77C292.588 196.75 292.708 196.65 292.678 196.55L291.838 193.09C291.818 192.99 291.658 192.92 291.498 192.94L290.678 193.05C290.518 193.07 290.398 193.17 290.428 193.27L291.268 196.73C291.288 196.83 291.448 196.9 291.608 196.88Z" fill="#263238"/>
<path d="M271.769 199.48L272.589 199.37C272.749 199.35 272.869 199.25 272.839 199.15L271.999 195.69C271.979 195.59 271.819 195.52 271.659 195.54L270.839 195.65C270.679 195.67 270.559 195.77 270.589 195.87L271.429 199.33C271.449 199.43 271.609 199.5 271.769 199.48Z" fill="#263238"/>
<path d="M256.859 168.8C257.689 172.66 258.889 177.55 260.569 183.74L260.939 168.05L256.859 168.8Z" fill="#FF9F4B"/>
<path opacity="0.3" d="M256.859 168.8C257.689 172.66 258.889 177.55 260.569 183.74L260.939 168.05L256.859 168.8Z" fill="black"/>
<path d="M255.449 154.33C251.699 155.84 248.479 168.67 248.479 168.67L261.379 174.95C261.379 174.95 267.619 159.26 264.819 156.2C261.909 153.01 259.769 152.6 255.449 154.33Z" fill="#FF9F4B"/>
<path opacity="0.1" d="M255.449 154.33C251.699 155.84 248.479 168.67 248.479 168.67L261.379 174.95C261.379 174.95 267.619 159.26 264.819 156.2C261.909 153.01 259.769 152.6 255.449 154.33Z" fill="black"/>
<path d="M278.019 354.62H264.429L263.369 350.06L278.499 350.17L278.019 354.62Z" fill="#FF9F4B"/>
<path opacity="0.2" d="M278.019 354.62H264.429L263.369 350.06L278.499 350.17L278.019 354.62Z" fill="black"/>
<path d="M265 196.72L263.91 196.27C262.73 195.79 261.48 196.77 261.67 198.03L262.46 203.24C262.63 204.35 263.77 205.05 264.82 204.66C265.18 204.53 265.56 204.33 265.92 204.05C266.67 203.46 267.04 202.52 267 201.57L266.9 199.41C266.84 198.22 266.11 197.17 265.01 196.72H265Z" fill="#E4897B"/>
</svg>
