<svg width="442" height="8" viewBox="0 0 442 8" fill="none" xmlns="http://www.w3.org/2000/svg"> <path d="M1 6.5C4.1187 6.04906 5.36078 4.90628 6.5 1H14C14.959 4.51464 16.8244 6.63807 20 6.5C23.0347 6.36806 24.109 4.73501 25.5 1H33C33.6273 4.37927 35.1092 6.23611 38 6.5C41.1655 6.78896 43.8571 4.79 45 1H52" stroke="#363636"/> <path d="M45 1H52.5C53.459 4.51464 55.3244 6.63807 58.5 6.5C61.5347 6.36806 62.609 4.73501 64 1H71.5C72.1273 4.37927 73.6092 6.23611 76.5 6.5C79.6655 6.78896 82.3571 4.79 83.5 1H90.5" stroke="#363636"/> <path d="M84 1H91.5C92.459 4.51464 94.3244 6.63807 97.5 6.5C100.535 6.36806 101.609 4.73501 103 1H110.5C111.127 4.37927 112.609 6.23611 115.5 6.5C118.665 6.78896 121.357 4.79 122.5 1H129.5" stroke="#363636"/> <path d="M123 1H130.5C131.459 4.51464 133.324 6.63807 136.5 6.5C139.535 6.36806 140.609 4.73501 142 1H149.5C150.127 4.37927 151.609 6.23611 154.5 6.5C157.665 6.78896 160.357 4.79 161.5 1H168.5" stroke="#363636"/> <path d="M162 1H169.5C170.459 4.51464 172.324 6.63807 175.5 6.5C178.535 6.36806 179.609 4.73501 181 1H188.5C189.127 4.37927 190.609 6.23611 193.5 6.5C196.665 6.78896 199.357 4.79 200.5 1H207.5" stroke="#363636"/> <path d="M201 1H208.5C209.459 4.51464 211.324 6.63807 214.5 6.5C217.535 6.36806 218.609 4.73501 220 1H227.5C228.127 4.37927 229.609 6.23611 232.5 6.5C235.665 6.78896 238.357 4.79 239.5 1H246.5" stroke="#363636"/> <path d="M240 1H247.5C248.459 4.51464 250.324 6.63807 253.5 6.5C256.535 6.36806 257.609 4.73501 259 1H266.5C267.127 4.37927 268.609 6.23611 271.5 6.5C274.665 6.78896 277.357 4.79 278.5 1H285.5" stroke="#363636"/> <path d="M279 1H286.5C287.459 4.51464 289.324 6.63807 292.5 6.5C295.535 6.36806 296.609 4.73501 298 1H305.5C306.127 4.37927 307.609 6.23611 310.5 6.5C313.665 6.78896 316.357 4.79 317.5 1H324.5" stroke="#363636"/> <path d="M318 1H325.5C326.459 4.51464 328.324 6.63807 331.5 6.5C334.535 6.36806 335.609 4.73501 337 1H344.5C345.127 4.37927 346.609 6.23611 349.5 6.5C352.665 6.78896 355.357 4.79 356.5 1H363.5" stroke="#363636"/> <path d="M357 1H364.5C365.459 4.51464 367.324 6.63807 370.5 6.5C373.535 6.36806 374.609 4.73501 376 1H383.5C384.127 4.37927 385.609 6.23611 388.5 6.5C391.665 6.78896 394.357 4.79 395.5 1H402.5" stroke="#363636"/> <path d="M396 1H403.5C404.459 4.51464 406.324 6.63807 409.5 6.5C412.535 6.36806 413.609 4.73501 415 1H422.5C423.127 4.37927 424.609 6.23611 427.5 6.5C430.665 6.78896 433.357 4.79 434.5 1H441.5" stroke="#363636"/> </svg>
