<svg width="441" height="8" viewBox="0 0 441 8" fill="none" xmlns="http://www.w3.org/2000/svg"> <path d="M440.5 1.0275C437.381 1.47844 436.139 2.62122 435 6.5275L427.5 6.5275C426.541 3.01285 424.676 0.889425 421.5 1.0275C418.465 1.15944 417.391 2.79249 416 6.5275L408.5 6.5275C407.873 3.14823 406.391 1.29138 403.5 1.0275C400.335 0.738532 397.643 2.73749 396.5 6.5275L389.5 6.5275" stroke="#363636"/> <path d="M396.5 6.5275L389 6.5275C388.041 3.01285 386.176 0.889425 383 1.0275C379.965 1.15944 378.891 2.79249 377.5 6.5275L370 6.5275C369.373 3.14823 367.891 1.29138 365 1.0275C361.835 0.738532 359.143 2.73749 358 6.5275L351 6.5275" stroke="#363636"/> <path d="M357.5 6.5275L350 6.5275C349.041 3.01285 347.176 0.889425 344 1.0275C340.965 1.15944 339.891 2.79249 338.5 6.5275L331 6.5275C330.373 3.14823 328.891 1.29138 326 1.0275C322.835 0.738532 320.143 2.73749 319 6.5275L312 6.5275" stroke="#363636"/> <path d="M318.5 6.5275L311 6.5275C310.041 3.01285 308.176 0.889425 305 1.0275C301.965 1.15944 300.891 2.79249 299.5 6.5275L292 6.5275C291.373 3.14823 289.891 1.29138 287 1.0275C283.835 0.738532 281.143 2.73749 280 6.5275L273 6.5275" stroke="#363636"/> <path d="M279.5 6.5275L272 6.5275C271.041 3.01285 269.176 0.889425 266 1.0275C262.965 1.15944 261.891 2.79249 260.5 6.5275L253 6.5275C252.373 3.14823 250.891 1.29138 248 1.0275C244.835 0.738532 242.143 2.73749 241 6.5275L234 6.5275" stroke="#363636"/> <path d="M240.5 6.5275L233 6.5275C232.041 3.01285 230.176 0.889425 227 1.0275C223.965 1.15944 222.891 2.79249 221.5 6.5275L214 6.5275C213.373 3.14823 211.891 1.29138 209 1.0275C205.835 0.738532 203.143 2.73749 202 6.5275L195 6.5275" stroke="#363636"/> <path d="M201.5 6.5275L194 6.5275C193.041 3.01285 191.176 0.889425 188 1.0275C184.965 1.15944 183.891 2.79249 182.5 6.5275L175 6.5275C174.373 3.14823 172.891 1.29138 170 1.0275C166.835 0.738532 164.143 2.73749 163 6.5275L156 6.5275" stroke="#363636"/> <path d="M162.5 6.5275L155 6.5275C154.041 3.01285 152.176 0.889425 149 1.0275C145.965 1.15944 144.891 2.79249 143.5 6.5275L136 6.5275C135.373 3.14823 133.891 1.29138 131 1.0275C127.835 0.738532 125.143 2.73749 124 6.5275L117 6.5275" stroke="#363636"/> <path d="M123.5 6.5275L116 6.5275C115.041 3.01285 113.176 0.889425 110 1.0275C106.965 1.15944 105.891 2.79249 104.5 6.5275L97 6.5275C96.3727 3.14823 94.8908 1.29138 92 1.0275C88.8345 0.738532 86.1429 2.73749 85 6.5275L78 6.5275" stroke="#363636"/> <path d="M84.5 6.5275L77 6.5275C76.041 3.01285 74.1756 0.889425 71 1.0275C67.9653 1.15944 66.891 2.79249 65.5 6.5275L58 6.5275C57.3727 3.14823 55.8908 1.29138 53 1.0275C49.8345 0.738532 47.1429 2.73749 46 6.5275L39 6.5275" stroke="#363636"/> <path d="M45.5 6.5275L38 6.5275C37.041 3.01285 35.1756 0.889425 32 1.0275C28.9653 1.15944 27.891 2.79249 26.5 6.5275L19 6.5275C18.3727 3.14823 16.8908 1.29138 14 1.0275C10.8345 0.738532 8.14287 2.73749 7 6.5275L0 6.5275" stroke="#363636"/> </svg>
